<svg width="64" height="64" viewBox="0 0 64 64" fill="none" xmlns="http://www.w3.org/2000/svg">
<path fill-rule="evenodd" clip-rule="evenodd" d="M50.5786 29.6084C50.5006 28.9989 50.3924 28.3875 50.2531 27.776C50.023 26.7661 49.7164 25.7934 49.3409 24.8628C52.2934 24.3525 54.7317 24.0589 56.4584 24.0131C56.585 24.0098 56.7077 24.0078 56.8265 24.0071C58.3061 23.9986 59.181 24.1985 59.3013 24.6304C59.4215 25.0624 58.7758 25.6856 57.5047 26.443C57.4026 26.5038 57.2966 26.5655 57.1865 26.628C55.6711 27.4889 53.4051 28.5081 50.5786 29.6084ZM50.7294 32.3556C50.7456 31.4479 50.6966 30.5302 50.5786 29.6084C45.917 31.4231 39.7309 33.4584 32.8734 35.3677C25.8148 37.333 19.2962 38.8165 14.3094 39.6608C13.8322 38.5732 13.4504 37.4249 13.1768 36.224C13.0869 35.8297 13.0101 35.4356 12.9459 35.0419C17.6584 33.1809 24.0335 31.071 31.1271 29.0959C38.0217 27.1763 44.401 25.7164 49.3409 24.8628C48.9971 24.0107 48.5955 23.1939 48.1418 22.4158C48.8827 22.2827 49.5956 22.1618 50.2778 22.0537C52.8728 21.6424 55.1174 21.3999 56.7992 21.3892C57.6189 21.384 58.4616 21.431 59.1928 21.6099C59.5571 21.699 60.0346 21.8536 60.4953 22.1524C60.9742 22.4629 61.572 23.0255 61.8233 23.9282C62.0746 24.8309 61.8536 25.6215 61.6041 26.1347C61.3641 26.6286 61.0352 27.0078 60.7694 27.2724C60.2359 27.8034 59.5387 28.2791 58.8343 28.6983C57.3889 29.5582 55.342 30.5107 52.9078 31.4997C52.2187 31.7796 51.4915 32.0654 50.7294 32.3556ZM15.5966 42.0946C15.1133 41.3228 14.6822 40.5103 14.3094 39.6608C11.514 40.1341 9.2 40.4066 7.54205 40.4505C7.41553 40.4539 7.29283 40.4559 7.17403 40.4566C5.69443 40.465 4.81951 40.2652 4.69924 39.8332C4.57897 39.4013 5.22472 38.778 6.49579 38.0206C6.59785 37.9598 6.70394 37.8981 6.81399 37.8356C8.24333 37.0237 10.3405 36.0708 12.9459 35.0419C12.7976 34.1323 12.717 33.2255 12.7006 32.327C17.4374 30.495 23.6203 28.4685 30.4249 26.5739C37.0359 24.7332 43.2088 23.3023 48.1418 22.4158C44.0675 15.428 35.7948 11.5698 27.4909 13.4618C18.5578 15.4973 12.5401 23.5151 12.7006 32.327C12.1442 32.5422 11.6078 32.7547 11.0927 32.964C8.65851 33.953 6.61156 34.9054 5.16619 35.7654C4.46178 36.1845 3.76462 36.6602 3.2311 37.1913C2.96529 37.4558 2.63641 37.835 2.39634 38.3289C2.14687 38.8422 1.92587 39.6328 2.17719 40.5354C2.42852 41.4381 3.02631 42.0007 3.50514 42.3112C3.96591 42.61 4.44342 42.7646 4.8077 42.8538C5.53888 43.0326 6.38159 43.0797 7.20125 43.0744C8.88307 43.0637 11.1277 42.8212 13.7227 42.4099C14.3241 42.3146 14.9494 42.2094 15.5966 42.0946ZM15.5966 42.0946C19.7698 48.7585 27.8395 52.3836 35.9389 50.5382C44.6409 48.5554 50.5763 40.8959 50.7294 32.3556C46.0715 34.1293 40.1103 36.0703 33.5756 37.8898C26.847 39.7632 20.5722 41.2121 15.5966 42.0946ZM57.0845 23.552C57.0847 23.552 57.0822 23.5549 57.0765 23.5605C57.0815 23.5549 57.0844 23.5521 57.0845 23.552ZM6.0397 37.7644C6.03983 37.7644 6.04374 37.7653 6.05106 37.7676C6.04323 37.7656 6.03957 37.7645 6.0397 37.7644ZM6.91596 40.9116C6.91581 40.9116 6.91836 40.9087 6.92407 40.903C6.91896 40.9087 6.91611 40.9116 6.91596 40.9116ZM57.9608 26.6992C57.9607 26.6993 57.9568 26.6983 57.9495 26.6961C57.9572 26.698 57.9609 26.6991 57.9608 26.6992Z" fill="#1FE793"/>
</svg>
